<?xml version="1.0" encoding="UTF-8" standalone="no"?>
<svg
   xmlns:dc="http://purl.org/dc/elements/1.1/"
   xmlns:cc="http://creativecommons.org/ns#"
   xmlns:rdf="http://www.w3.org/1999/02/22-rdf-syntax-ns#"
   xmlns:svg="http://www.w3.org/2000/svg"
   xmlns="http://www.w3.org/2000/svg"
   xmlns:sodipodi="http://sodipodi.sourceforge.net/DTD/sodipodi-0.dtd"
   xmlns:inkscape="http://www.inkscape.org/namespaces/inkscape"
   version="1.0"
   width="482.000000pt"
   height="288.000000pt"
   viewBox="0 0 482.000000 288.000000"
   preserveAspectRatio="xMidYMid meet"
   id="svg20"
   sodipodi:docname="asd.svg"
   inkscape:version="0.92.1 r15371">
  <defs
     id="defs24" />
  <sodipodi:namedview
     pagecolor="#ffffff"
     bordercolor="#666666"
     borderopacity="1"
     objecttolerance="10"
     gridtolerance="10"
     guidetolerance="10"
     inkscape:pageopacity="0"
     inkscape:pageshadow="2"
     inkscape:window-width="1280"
     inkscape:window-height="961"
     id="namedview22"
     showgrid="false"
     inkscape:zoom="1.7971992"
     inkscape:cx="321.33333"
     inkscape:cy="192"
     inkscape:window-x="-8"
     inkscape:window-y="-8"
     inkscape:window-maximized="1"
     inkscape:current-layer="svg20" />
  <metadata
     id="metadata10">
Created by potrace 1.14, written by Peter Selinger 2001-2017
<rdf:RDF>
  <cc:Work
     rdf:about="">
    <dc:format>image/svg+xml</dc:format>
    <dc:type
       rdf:resource="http://purl.org/dc/dcmitype/StillImage" />
  </cc:Work>
</rdf:RDF>
</metadata>
  <g
     transform="translate(0.000000,288.000000) scale(0.100000,-0.100000)"
     fill="#000000"
     stroke="none"
     id="g18">
    <path
       d="M2247 2528 c-81 -108 -315 -473 -310 -484 2 -7 19 -14 36 -16 17 -2 32 -7 34 -13 2 -7 -114 -9 -338 -7 -188 2 -353 1 -366 -3 -18 -4 -140 -181 -510 -738 -267 -402 -487 -741 -487 -752 -1 -16 6 -21 36 -23 29 -2 37 -8 40 -25 3 -22 4 -22 263 -25 143 -1 269 0 281 2 13 4 74 85 174 236 84 126 158 230 164 230 6 0 16 -10 21 -23 6 -14 21 -24 41 -27 l31 -5 -124 -178 c-67 -98 -123 -180 -123 -183 0 -2 23 -4 50 -4 47 0 63 -11 40 -25 -25 -16 -5 -25 54 -25 l64 0 42 65 c38 59 46 65 76 65 39 0 42 -8 14 -43 -11 -14 -20 -28 -20 -31 0 -3 23 -6 50 -6 47 0 63 -11 40 -25 -28 -17 -1 -25 90 -25 95 0 100 1 116 25 20 30 31 26 14 -4 -11 -21 -9 -21 101 -21 107 0 112 1 131 25 14 18 29 25 54 25 30 0 34 -3 34 -25 0 -24 2 -25 70 -25 63 0 70 2 70 19 0 28 17 35 29 12 27 -50 148 -52 236 -2 56 32 53 32 126 -17 29 -20 43 -23 92 -19 34 3 80 16 111 31 29 14 60 26 69 26 19 0 23 -15 7 -25 -25 -16 -5 -25 54 -25 57 0 65 3 80 26 23 33 71 31 70 -3 -1 -23 2 -23 111 -23 106 0 113 1 135 25 18 19 34 25 67 25 41 0 43 -1 37 -25 -6 -25 -6 -25 61 -25 58 0 68 3 72 20 7 26 20 25 43 -2 15 -19 28 -23 77 -22 90 1 178 55 235 143 32 50 35 86 12 119 -15 22 -15 22 29 22 40 0 46 3 75 44 18 24 32 47 32 50 0 3 -22 6 -50 6 -51 0 -61 8 -35 30 8 7 15 16 15 21 0 5 -54 9 -119 9 -105 0 -122 -2 -133 -18 -7 -10 -30 -38 -52 -63 -37 -43 -41 -40 -19 19 4 8 -8 12 -41 12 -44 0 -46 1 -40 25 6 25 5 25 -53 25 -51 0 -63 -4 -83 -25 -17 -18 -34 -25 -62 -25 -42 0 -46 5 -21 32 15 17 13 18 -54 18 -64 0 -71 -2 -83 -25 -10 -19 -21 -25 -48 -25 -31 0 -34 2 -28 25 6 25 5 25 -51 25 -55 0 -59 -2 -81 -34 -22 -32 -26 -34 -50 -23 -15 6 -33 20 -40 29 -7 10 -31 22 -53 28 -46 13 -140 -7 -197 -40 -38 -23 -77 -18 -92 11 -27 50 -160 43 -242 -13 -30 -20 -49 -16 -84 18 -21 22 -32 24 -131 25 l-108 1 108 19 c618 108 1079 365 1193 664 13 35 19 75 19 130 -1 96 -29 167 -95 239 -79 86 -287 207 -435 252 l-59 19 434 5 435 5 89 132 c75 112 87 135 76 148 -7 8 -25 15 -41 15 -21 0 -28 5 -31 23 l-3 22 -722 3 -722 2 -24 -32z m1453 5 c0 -4 -37 -63 -81 -130 l-82 -123 -445 0 c-400 0 -447 -2 -464 -17 -26 -23 -22 -42 10 -49 104 -22 253 -72 340 -115 80 -39 117 -64 166 -113 84 -84 110 -148 104 -261 -6 -115 -46 -193 -152 -301 -226 -228 -629 -393 -1148 -469 -219 -32 -726 -38 -721 -8 1 6 43 74 93 151 l91 140 102 6 c572 36 973 149 1118 314 68 77 92 189 56 258 -60 117 -275 196 -605 223 -63 5 -116 12 -119 15 -6 5 230 368 294 454 l24 32 710 0 c390 0 709 -3 709 -7z m-1515 -566 c199 -31 336 -92 376 -167 29 -53 25 -117 -11 -173 -102 -161 -488 -287 -976 -317 -99 -7 -186 -15 -194 -19 -8 -5 -130 -181 -270 -392 l-255 -384 -267 -3 c-148 -1 -268 0 -268 2 0 7 950 1437 969 1459 15 18 36 19 406 14 285 -3 417 -9 490 -20z m380 -1117 c18 -15 19 -40 3 -75 -9 -21 -18 -25 -53 -25 -37 0 -41 3 -41 23 1 19 -4 22 -32 20 -67 -3 -83 -45 -24 -63 74 -24 88 -56 52 -116 -47 -74 -180 -129 -259 -105 -48 14 -57 37 -37 85 14 33 18 36 55 36 37 0 41 -3 41 -24 0 -34 32 -42 78 -19 55 27 53 48 -8 68 -64 21 -77 43 -54 91 42 89 218 154 279 104z m348 -11 c36 -45 7 -120 -84 -215 -91 -94 -210 -142 -284 -114 -36 14 -45 26 -45 63 0 60 96 188 183 244 83 53 196 64 230 22z m-1322 11 c51 -28 -6 -133 -100 -182 -41 -22 -67 -28 -115 -28 l-61 0 -43 -65 c-40 -62 -44 -65 -82 -65 -22 0 -40 3 -40 6 0 3 53 82 117 175 l117 169 94 0 c51 0 102 -5 113 -10z m357 -25 l-23 -35 -92 0 c-90 0 -92 -1 -112 -29 -12 -16 -21 -32 -21 -35 0 -3 36 -6 80 -8 l80 -3 -26 -32 c-25 -33 -27 -33 -109 -33 -83 0 -83 0 -104 -32 l-20 -33 89 -5 89 -5 -20 -32 -21 -33 -134 0 c-74 0 -134 3 -134 6 0 3 53 82 117 175 l117 169 133 0 133 0 -22 -35z m307 19 c9 -9 14 -23 11 -31 -3 -8 -6 -19 -6 -24 0 -18 -74 -91 -112 -110 l-38 -19 0 -75 0 -75 -52 0 -53 0 0 67 c0 61 -2 68 -21 71 -15 2 -32 -14 -69 -68 -47 -68 -49 -70 -91 -70 l-43 0 121 175 120 175 108 0 c87 0 112 -3 125 -16z m877 -76 l-4 -93 64 92 c63 92 63 92 106 93 l43 0 -32 -47 c-18 -27 -73 -105 -121 -175 l-89 -128 -41 0 -41 0 7 90 c4 50 5 90 2 90 -2 0 -32 -40 -65 -90 -61 -88 -63 -90 -102 -90 -23 0 -39 4 -37 9 2 4 55 83 118 175 l115 166 40 0 40 0 -3 -92z m383 -80 l-53 -173 -47 -3 c-41 -3 -46 -1 -41 15 21 73 22 73 -24 73 -36 0 -51 -7 -96 -46 -47 -39 -59 -45 -93 -42 l-39 3 181 172 c174 165 184 172 223 173 l42 0 -53 -172z m435 163 c0 -4 -9 -20 -21 -35 -18 -23 -27 -26 -84 -26 -54 0 -66 -3 -75 -20 -10 -18 -8 -20 17 -20 78 -1 73 -72 -10 -158 -52 -54 -104 -81 -165 -89 -39 -4 -50 -2 -66 16 -15 17 -17 27 -10 53 9 30 13 33 56 36 43 3 46 1 41 -17 -9 -33 30 -26 71 13 43 40 48 76 12 76 -14 0 -28 -4 -31 -10 -6 -10 -85 -14 -85 -4 0 3 37 48 82 100 l82 94 93 0 c51 0 93 -4 93 -9z"
       id="path12" />
    <path
       d="M1651 1711 c-45 -67 -85 -129 -88 -138 -6 -15 4 -16 98 -10 181 11 340 65 379 130 53 87 0 122 -201 134 l-107 6 -81 -122z m328 41 c31 -4 56 -13 59 -20 7 -21 -64 -79 -125 -102 -50 -19 -204 -53 -210 -46 -3 2 57 95 94 144 22 29 28 32 76 31 29 -1 76 -4 106 -7z"
       id="path14" />
    <path
       d="M2743 784 c-68 -34 -143 -126 -143 -176 0 -33 31 -45 73 -29 42 16 122 96 142 142 30 66 -5 96 -72 63z"
       id="path16" />
  </g>
  <path
     style="fill:#ffffff;stroke-width:0.55642134"
     d="m 179.7241,259.74728 c -9.38073,-0.35765 -14.8328,-0.99016 -15.65931,-1.81667 -0.43935,-0.43935 21.83403,-35.86537 23.92489,-38.05277 0.39653,-0.41484 4.2095,-0.8914 10.09632,-1.2619 46.58643,-2.93195 82.40238,-8.80471 110.17143,-18.06488 29.66815,-9.89346 45.41665,-21.83536 50.6885,-38.43652 6.00057,-18.89592 -3.3855,-31.49144 -30.37912,-40.76684 -12.81822,-4.40453 -26.84728,-7.05387 -49.24329,-9.29943 -14.95594,-1.49958 -16.97085,-1.79376 -16.97085,-2.47773 0,-1.63507 27.73258,-44.400603 38.04075,-58.661428 l 3.96906,-5.491004 93.47927,0.225592 c 51.41359,0.124075 93.80315,0.42576 94.199,0.670412 0.93565,0.57826 0.0963,2.012264 -11.35793,19.406061 l -9.06885,13.771429 -32.43498,0.04557 c -53.08602,0.07458 -84.90705,0.712152 -87.30887,1.749336 -3.32462,1.435677 -4.94646,4.930961 -3.02713,6.523866 0.4408,0.365823 4.61613,1.645684 9.27851,2.844135 21.47081,5.518995 42.74468,14.381101 53.2365,22.176851 5.20969,3.87095 13.61886,12.68083 16.18347,16.95461 6.57721,10.96057 7.12847,27.94402 1.3565,41.79205 -4.14328,9.94053 -17.5172,24.99167 -31.46144,35.40702 -31.19302,23.29898 -77.20033,40.03893 -134.289,48.86161 -19.79742,3.05957 -58.28437,4.85911 -83.42343,3.90063 z"
     id="path28"
     inkscape:connector-curvature="0"
     transform="scale(0.74999999)" />
  <path
     style="fill:#ffffff;stroke-width:0.55642134"
     d="m 43.460283,314.71873 c 1.755004,-3.02663 39.347247,-59.82491 79.923637,-120.75697 37.28558,-55.99037 49.18908,-73.47354 50.35803,-73.96294 2.38068,-0.99671 24.55716,-1.17861 61.34607,-0.50319 44.47799,0.8166 53.0887,1.42542 68.32104,4.83063 17.33049,3.87427 31.23926,10.60577 36.27367,17.55557 2.95851,4.0841 4.04702,7.92011 3.76921,13.28308 -0.29088,5.61544 -1.81467,9.45874 -5.72212,14.4323 -13.07329,16.64021 -50.80163,30.60051 -99.30327,36.74434 -8.16763,1.03462 -14.21294,1.59523 -39.38136,3.65199 -16.56331,1.35355 -14.62137,0.5518 -20.20881,8.34345 -6.51732,9.08839 -30.90889,45.24233 -49.43468,73.27363 l -15.26787,23.10174 -4.15173,0.35095 c -2.28345,0.19302 -18.275747,0.35095 -35.538428,0.35095 -24.953503,0 -31.30403,-0.14256 -30.983389,-0.69553 z M 222.62684,175.74289 c 20.63843,-1.6281 38.74714,-7.02268 46.49531,-13.85094 5.12187,-4.51377 7.02616,-11.47145 4.09358,-14.95663 -3.40247,-4.0436 -13.47175,-6.13145 -34.34202,-7.12077 l -8.17738,-0.38763 -10.46274,15.82856 c -12.49355,18.90087 -13.00295,19.78232 -11.85256,20.50955 1.08341,0.68489 5.36767,0.67823 14.24581,-0.0221 z"
     id="path30"
     inkscape:connector-curvature="0"
     transform="scale(0.74999999)" />
  <path
     style="fill:#ffffff;stroke-width:0.55642134"
     d="m 240.26493,312.4218 c 1.42969,-2.04518 8.6308,-12.47452 16.00247,-23.1763 l 13.40305,-19.45779 12.89465,0.003 c 13.55595,0.003 16.32231,0.36576 18.22996,2.38884 0.97525,1.03427 1.09974,1.65758 0.80027,4.0069 -0.20743,1.6273 -0.96854,3.67396 -1.83361,4.93072 -2.5957,3.77094 -10.04374,10.21025 -14.39092,12.44186 l -4.09503,2.10217 -0.002,10.15469 -0.002,10.15469 h -6.95527 -6.95527 v -8.10469 c 0,-4.5227 -0.25457,-8.58036 -0.576,-9.18095 -0.39233,-0.73309 -1.16645,-1.07627 -2.42775,-1.07627 -2.27363,0 -4.8857,2.65241 -10.61178,10.77564 -2.12831,3.0193 -4.44066,5.86378 -5.13856,6.32106 -0.75537,0.49494 -3.22608,0.95353 -6.10489,1.13313 l -4.83597,0.30171 z"
     id="path32"
     inkscape:connector-curvature="0"
     transform="scale(0.74999999)" />
  <path
     style="fill:#ffffff;stroke-width:0.55642134"
     d="m 202.95469,315.55531 c -3.44286,-0.0976 -6.25974,-0.41062 -6.25974,-0.69555 0,-0.57516 9.39888,-14.56146 22.06248,-32.83078 l 8.29233,-11.96306 17.37324,-0.14704 c 9.55529,-0.0809 17.37325,-0.0153 17.37325,0.14578 0,0.16104 -1.16349,2.04253 -2.58554,4.18109 l -2.58552,3.88828 -5.34348,0.0453 c -2.93891,0.0249 -8.39321,0.22065 -12.12067,0.43492 -5.50642,0.31653 -6.99536,0.58702 -7.9407,1.44254 -1.51259,1.36887 -4.47864,5.85368 -4.47864,6.77191 0,0.97614 2.20322,1.2961 12.11099,1.75881 l 8.49424,0.39669 -2.7577,3.40536 c -1.51674,1.87294 -3.21084,3.61061 -3.76467,3.86149 -0.55382,0.25088 -5.55664,0.59639 -11.11737,0.76781 -9.78973,0.30178 -10.15694,0.35539 -11.57743,1.69038 -1.26799,1.19165 -4.74217,6.59462 -4.74217,7.3749 0,0.14951 3.81844,0.4402 8.48543,0.64597 4.66698,0.20578 9.89928,0.52058 11.62733,0.69954 l 3.1419,0.32539 -2.58548,4.10498 -2.58549,4.10497 -11.12842,-0.11611 c -6.12064,-0.0639 -13.94531,-0.19599 -17.38817,-0.29361 z"
     id="path34"
     inkscape:connector-curvature="0"
     transform="scale(0.74999999)" />
  <path
     style="fill:#ffffff;stroke-width:0.55642134"
     d="m 155.65887,315.59543 c -0.9946,-0.13842 -1.80836,-0.41507 -1.80836,-0.61476 0,-0.44557 8.11851,-12.48769 20.9961,-31.14333 l 9.69817,-14.04963 10.94377,0.0332 c 13.43637,0.0407 15.97907,0.39799 17.78637,2.4991 1.0834,1.25952 1.28871,1.98394 1.05536,3.72367 -0.72922,5.43679 -5.64464,12.00154 -12.3386,16.47874 -6.65479,4.45099 -9.27047,5.23703 -18.65084,5.60475 l -8.06811,0.31628 -5.06258,7.49254 c -2.78442,4.1209 -5.6639,7.9379 -6.39885,8.48222 -1.42063,1.05217 -5.16556,1.59296 -8.15243,1.17726 z"
     id="path36"
     inkscape:connector-curvature="0"
     transform="scale(0.74999999)" />
  <path
     style="fill:#ffffff;stroke-width:0.55642134"
     d="m 293.79048,315.39764 c -1.53016,-0.59257 -3.22029,-1.61016 -3.75585,-2.2613 -1.30735,-1.58952 -1.22863,-5.17437 0.18192,-8.28408 1.87047,-4.12365 2.39185,-4.46138 6.88741,-4.46138 4.35474,0 5.31105,0.50747 5.31105,2.81835 0,0.81562 0.51895,2.14269 1.15322,2.94904 0.93067,1.18314 1.62121,1.46609 3.57811,1.46609 3.3738,0 10.33245,-3.57316 11.07597,-5.68735 0.76778,-2.18317 -0.58919,-3.40445 -6.08923,-5.4803 -6.15283,-2.32223 -8.30309,-4.132 -8.29748,-6.98361 0.0173,-8.78558 14.68077,-19.63449 27.90814,-20.64807 9.76007,-0.74788 13.90217,3.4894 10.69617,10.94196 -1.37348,3.19274 -2.72168,3.93125 -7.17672,3.93125 -4.27166,0 -5.02711,-0.33658 -5.02711,-2.23971 0,-3.00244 -0.39863,-3.3245 -4.1148,-3.3245 -4.75448,0 -8.33388,1.77515 -8.57458,4.25245 -0.20631,2.12323 1.22491,3.27117 6.48318,5.19999 1.94215,0.71241 4.38345,2.09909 5.42511,3.0815 1.65403,1.55995 1.89327,2.13028 1.88871,4.50261 -0.0149,7.76152 -10.59565,17.04911 -23.05237,20.23501 -5.53353,1.41524 -10.83337,1.41233 -14.50085,-0.008 z"
     id="path38"
     inkscape:connector-curvature="0"
     transform="scale(0.74999999)" />
  <path
     style="fill:#ffffff;stroke-width:0.55642134"
     d="m 338.14313,315.14604 c -2.24998,-1.04748 -3.13456,-1.82828 -3.75584,-3.31522 -2.27146,-5.43636 0.93568,-13.204 9.89897,-23.97514 10.24976,-12.3171 21.70049,-18.6244 33.81207,-18.6244 8.13678,0 11.96224,3.00568 11.87087,9.32699 -0.10633,7.35593 -9.89457,20.81634 -21.22313,29.18524 -10.72334,7.92179 -23.07165,10.90872 -30.60294,7.40253 z m 19.78786,-8.98921 c 3.55404,-1.70679 11.53069,-9.12354 14.91893,-13.87173 5.85965,-8.21157 5.3913,-14.7075 -1.0604,-14.7075 -7.3139,0 -20.75953,11.68 -24.3631,21.16382 -1.35241,3.55926 -1.33314,5.59604 0.0698,7.3796 1.90763,2.42516 5.43424,2.43726 10.43477,0.0358 z"
     id="path40"
     inkscape:connector-curvature="0"
     transform="scale(0.74999999)" />
  <path
     style="fill:#ffffff;stroke-width:0.55642134"
     d="m 378.78384,315.59123 c -0.9946,-0.13611 -1.80837,-0.50286 -1.80837,-0.81499 0,-0.59662 10.93226,-16.9373 23.11365,-34.54844 l 7.21131,-10.42571 5.2119,-0.007 5.21189,-0.007 -0.40121,12.38037 -0.40122,12.38038 1.61272,-2.22569 c 0.88699,-1.22413 4.45625,-6.30431 7.93169,-11.2893 3.47543,-4.98499 7.02293,-9.56488 7.88333,-10.17754 1.30616,-0.93007 2.28755,-1.08718 5.94629,-0.95196 l 4.38196,0.16195 -15.78478,22.81327 -15.78478,22.81328 -5.34869,0.16022 -5.34869,0.16022 0.36614,-2.94233 c 0.66939,-5.3792 1.09844,-21.02612 0.57647,-21.02304 -0.53806,0.003 -1.61808,1.45222 -10.11696,13.57379 -2.98256,4.25389 -6.04611,8.19056 -6.80788,8.74816 -1.49744,1.09609 -4.75676,1.61698 -7.64477,1.22174 z"
     id="path42"
     inkscape:connector-curvature="0"
     transform="scale(0.74999999)" />
  <path
     style="fill:#ffffff;stroke-width:0.55642134"
     d="m 417.03781,315.18857 c 0,-0.12413 8.32545,-8.09944 18.50101,-17.7229 29.59409,-27.98841 28.7247,-27.30815 35.2618,-27.59087 l 4.51952,-0.19546 -6.87573,22.412 c -3.78165,12.3266 -7.19257,22.61312 -7.57984,22.85894 -0.38726,0.24581 -3.04942,0.45077 -5.9159,0.45546 -5.13451,0.008 -5.20685,-0.01 -4.87802,-1.24343 2.15182,-8.07109 2.25113,-8.88902 1.17485,-9.67601 -1.26216,-0.92291 -6.31665,-0.98923 -9.21485,-0.12091 -1.16749,0.34978 -4.57679,2.56629 -7.57624,4.92557 -7.27709,5.72396 -8.13898,6.1233 -13.21581,6.1233 -2.31044,0 -4.20079,-0.10156 -4.20079,-0.22569 z"
     id="path44"
     inkscape:connector-curvature="0"
     transform="scale(0.74999999)" />
  <path
     style="fill:#ffffff;stroke-width:0.55642134"
     d="m 476.01847,316.69196 c -1.35786,-0.49409 -3.96689,-3.12199 -4.52378,-4.5565 -0.35814,-0.92255 -0.2472,-2.2588 0.3613,-4.35198 0.74526,-2.5636 1.16599,-3.14093 2.78064,-3.81557 1.04754,-0.43769 3.69217,-0.79492 5.88489,-0.79492 h 3.98238 l -0.33264,1.66317 c -0.45836,2.29181 0.0679,3.34462 1.67175,3.34462 4.47973,0 12.98874,-8.07787 12.98874,-12.33063 0,-2.72863 -4.12778,-3.64371 -7.44602,-1.6507 -2.00311,1.20312 -7.13804,1.91012 -9.42701,1.29796 l -1.56847,-0.41948 1.26315,-1.65579 c 0.69473,-0.91069 5.50572,-6.60099 10.6911,-12.64511 l 9.42794,-10.98932 h 10.42316 c 10.63258,0 13.90079,0.28712 13.90079,1.22124 0,1.09421 -3.45361,5.48647 -4.89492,6.22529 -0.90172,0.46223 -4.47368,0.93396 -8.92047,1.17807 -6.4392,0.3535 -7.59376,0.56363 -8.76125,1.59459 -0.73958,0.6531 -1.40837,1.80997 -1.48619,2.57084 -0.13238,1.29423 0.0636,1.40593 3.04066,1.73306 5.65236,0.6211 7.77384,3.11167 6.58766,7.73376 -0.99729,3.88601 -3.79759,8.10111 -8.66237,13.03885 -6.67153,6.7716 -12.74905,10.08877 -20.91004,11.41293 -3.87464,0.62867 -4.79903,0.65846 -6.071,0.19562 z"
     id="path46"
     inkscape:connector-curvature="0"
     transform="scale(0.74999999)" />
</svg>
