<svg width="482" height="288" xmlns="http://www.w3.org/2000/svg" preserveAspectRatio="xMidYMid meet">
 <metadata>Created by potrace 1.14, written by Peter Selinger 2001-2017</metadata>

 <g>
  <title>background</title>
  <rect fill="#ffffff" id="canvas_background" height="290" width="484" y="-1" x="-1"/>
 </g>
 <g>
  <title>Layer 1</title>
  <g id="svg_1" fill="#000000" transform="translate(0,288) scale(0.10000000149011612,-0.10000000149011612) ">
   <path id="svg_2" d="m2247,2528c-81,-108 -315,-473 -310,-484c2,-7 19,-14 36,-16c17,-2 32,-7 34,-13c2,-7 -114,-9 -338,-7c-188,2 -353,1 -366,-3c-18,-4 -140,-181 -510,-738c-267,-402 -487,-741 -487,-752c-1,-16 6,-21 36,-23c29,-2 37,-8 40,-25c3,-22 4,-22 263,-25c143,-1 269,0 281,2c13,4 74,85 174,236c84,126 158,230 164,230c6,0 16,-10 21,-23c6,-14 21,-24 41,-27l31,-5l-124,-178c-67,-98 -123,-180 -123,-183c0,-2 23,-4 50,-4c47,0 63,-11 40,-25c-25,-16 -5,-25 54,-25l64,0l42,65c38,59 46,65 76,65c39,0 42,-8 14,-43c-11,-14 -20,-28 -20,-31c0,-3 23,-6 50,-6c47,0 63,-11 40,-25c-28,-17 -1,-25 90,-25c95,0 100,1 116,25c20,30 31,26 14,-4c-11,-21 -9,-21 101,-21c107,0 112,1 131,25c14,18 29,25 54,25c30,0 34,-3 34,-25c0,-24 2,-25 70,-25c63,0 70,2 70,19c0,28 17,35 29,12c27,-50 148,-52 236,-2c56,32 53,32 126,-17c29,-20 43,-23 92,-19c34,3 80,16 111,31c29,14 60,26 69,26c19,0 23,-15 7,-25c-25,-16 -5,-25 54,-25c57,0 65,3 80,26c23,33 71,31 70,-3c-1,-23 2,-23 111,-23c106,0 113,1 135,25c18,19 34,25 67,25c41,0 43,-1 37,-25c-6,-25 -6,-25 61,-25c58,0 68,3 72,20c7,26 20,25 43,-2c15,-19 28,-23 77,-22c90,1 178,55 235,143c32,50 35,86 12,119c-15,22 -15,22 29,22c40,0 46,3 75,44c18,24 32,47 32,50c0,3 -22,6 -50,6c-51,0 -61,8 -35,30c8,7 15,16 15,21c0,5 -54,9 -119,9c-105,0 -122,-2 -133,-18c-7,-10 -30,-38 -52,-63c-37,-43 -41,-40 -19,19c4,8 -8,12 -41,12c-44,0 -46,1 -40,25c6,25 5,25 -53,25c-51,0 -63,-4 -83,-25c-17,-18 -34,-25 -62,-25c-42,0 -46,5 -21,32c15,17 13,18 -54,18c-64,0 -71,-2 -83,-25c-10,-19 -21,-25 -48,-25c-31,0 -34,2 -28,25c6,25 5,25 -51,25c-55,0 -59,-2 -81,-34c-22,-32 -26,-34 -50,-23c-15,6 -33,20 -40,29c-7,10 -31,22 -53,28c-46,13 -140,-7 -197,-40c-38,-23 -77,-18 -92,11c-27,50 -160,43 -242,-13c-30,-20 -49,-16 -84,18c-21,22 -32,24 -131,25l-108,1l108,19c618,108 1079,365 1193,664c13,35 19,75 19,130c-1,96 -29,167 -95,239c-79,86 -287,207 -435,252l-59,19l434,5l435,5l89,132c75,112 87,135 76,148c-7,8 -25,15 -41,15c-21,0 -28,5 -31,23l-3,22l-722,3l-722,2l-24,-32zm1453,5c0,-4 -37,-63 -81,-130l-82,-123l-445,0c-400,0 -447,-2 -464,-17c-26,-23 -22,-42 10,-49c104,-22 253,-72 340,-115c80,-39 117,-64 166,-113c84,-84 110,-148 104,-261c-6,-115 -46,-193 -152,-301c-226,-228 -629,-393 -1148,-469c-219,-32 -726,-38 -721,-8c1,6 43,74 93,151l91,140l102,6c572,36 973,149 1118,314c68,77 92,189 56,258c-60,117 -275,196 -605,223c-63,5 -116,12 -119,15c-6,5 230,368 294,454l24,32l710,0c390,0 709,-3 709,-7zm-1515,-566c199,-31 336,-92 376,-167c29,-53 25,-117 -11,-173c-102,-161 -488,-287 -976,-317c-99,-7 -186,-15 -194,-19c-8,-5 -130,-181 -270,-392l-255,-384l-267,-3c-148,-1 -268,0 -268,2c0,7 950,1437 969,1459c15,18 36,19 406,14c285,-3 417,-9 490,-20zm380,-1117c18,-15 19,-40 3,-75c-9,-21 -18,-25 -53,-25c-37,0 -41,3 -41,23c1,19 -4,22 -32,20c-67,-3 -83,-45 -24,-63c74,-24 88,-56 52,-116c-47,-74 -180,-129 -259,-105c-48,14 -57,37 -37,85c14,33 18,36 55,36c37,0 41,-3 41,-24c0,-34 32,-42 78,-19c55,27 53,48 -8,68c-64,21 -77,43 -54,91c42,89 218,154 279,104zm348,-11c36,-45 7,-120 -84,-215c-91,-94 -210,-142 -284,-114c-36,14 -45,26 -45,63c0,60 96,188 183,244c83,53 196,64 230,22zm-1322,11c51,-28 -6,-133 -100,-182c-41,-22 -67,-28 -115,-28l-61,0l-43,-65c-40,-62 -44,-65 -82,-65c-22,0 -40,3 -40,6c0,3 53,82 117,175l117,169l94,0c51,0 102,-5 113,-10zm357,-25l-23,-35l-92,0c-90,0 -92,-1 -112,-29c-12,-16 -21,-32 -21,-35c0,-3 36,-6 80,-8l80,-3l-26,-32c-25,-33 -27,-33 -109,-33c-83,0 -83,0 -104,-32l-20,-33l89,-5l89,-5l-20,-32l-21,-33l-134,0c-74,0 -134,3 -134,6c0,3 53,82 117,175l117,169l133,0l133,0l-22,-35zm307,19c9,-9 14,-23 11,-31c-3,-8 -6,-19 -6,-24c0,-18 -74,-91 -112,-110l-38,-19l0,-75l0,-75l-52,0l-53,0l0,67c0,61 -2,68 -21,71c-15,2 -32,-14 -69,-68c-47,-68 -49,-70 -91,-70l-43,0l121,175l120,175l108,0c87,0 112,-3 125,-16zm877,-76l-4,-93l64,92c63,92 63,92 106,93l43,0l-32,-47c-18,-27 -73,-105 -121,-175l-89,-128l-41,0l-41,0l7,90c4,50 5,90 2,90c-2,0 -32,-40 -65,-90c-61,-88 -63,-90 -102,-90c-23,0 -39,4 -37,9c2,4 55,83 118,175l115,166l40,0l40,0l-3,-92zm383,-80l-53,-173l-47,-3c-41,-3 -46,-1 -41,15c21,73 22,73 -24,73c-36,0 -51,-7 -96,-46c-47,-39 -59,-45 -93,-42l-39,3l181,172c174,165 184,172 223,173l42,0l-53,-172zm435,163c0,-4 -9,-20 -21,-35c-18,-23 -27,-26 -84,-26c-54,0 -66,-3 -75,-20c-10,-18 -8,-20 17,-20c78,-1 73,-72 -10,-158c-52,-54 -104,-81 -165,-89c-39,-4 -50,-2 -66,16c-15,17 -17,27 -10,53c9,30 13,33 56,36c43,3 46,1 41,-17c-9,-33 30,-26 71,13c43,40 48,76 12,76c-14,0 -28,-4 -31,-10c-6,-10 -85,-14 -85,-4c0,3 37,48 82,100l82,94l93,0c51,0 93,-4 93,-9z"/>
   <path id="svg_3" d="m1651,1711c-45,-67 -85,-129 -88,-138c-6,-15 4,-16 98,-10c181,11 340,65 379,130c53,87 0,122 -201,134l-107,6l-81,-122zm328,41c31,-4 56,-13 59,-20c7,-21 -64,-79 -125,-102c-50,-19 -204,-53 -210,-46c-3,2 57,95 94,144c22,29 28,32 76,31c29,-1 76,-4 106,-7z"/>
   <path id="svg_4" d="m2743,784c-68,-34 -143,-126 -143,-176c0,-33 31,-45 73,-29c42,16 122,96 142,142c30,66 -5,96 -72,63z"/>
  </g>
 </g>
</svg>